<mxfile host="app.diagrams.net" modified="2024-03-01T22:54:37.171Z" agent="Mozilla/5.0 (Windows NT 10.0; Win64; x64) AppleWebKit/537.36 (KHTML, like Gecko) Chrome/122.0.0.0 Safari/537.36" etag="afbifiHrXG7xsEo1_2xm" version="24.0.0" type="device">
  <diagram name="Page-1" id="vjVh5fGKrI11blgInpVl">
    <mxGraphModel dx="1728" dy="943" grid="1" gridSize="10" guides="1" tooltips="1" connect="1" arrows="1" fold="1" page="1" pageScale="1" pageWidth="850" pageHeight="1100" math="0" shadow="0">
      <root>
        <mxCell id="0" />
        <mxCell id="1" parent="0" />
        <mxCell id="duoS7hjMmrgmKoDXFe4e-38" style="edgeStyle=orthogonalEdgeStyle;rounded=0;orthogonalLoop=1;jettySize=auto;html=1;" parent="1" source="duoS7hjMmrgmKoDXFe4e-1" target="duoS7hjMmrgmKoDXFe4e-6" edge="1">
          <mxGeometry relative="1" as="geometry" />
        </mxCell>
        <mxCell id="duoS7hjMmrgmKoDXFe4e-1" value="Customer" style="shape=umlActor;verticalLabelPosition=bottom;verticalAlign=top;html=1;outlineConnect=0;" parent="1" vertex="1">
          <mxGeometry x="40" y="380" width="30" height="60" as="geometry" />
        </mxCell>
        <mxCell id="duoS7hjMmrgmKoDXFe4e-28" style="edgeStyle=orthogonalEdgeStyle;rounded=0;orthogonalLoop=1;jettySize=auto;html=1;entryX=0.5;entryY=0;entryDx=0;entryDy=0;" parent="1" target="duoS7hjMmrgmKoDXFe4e-14" edge="1">
          <mxGeometry relative="1" as="geometry">
            <mxPoint x="710" y="200" as="sourcePoint" />
          </mxGeometry>
        </mxCell>
        <mxCell id="duoS7hjMmrgmKoDXFe4e-4" value="Store Staff" style="shape=umlActor;verticalLabelPosition=bottom;verticalAlign=top;html=1;outlineConnect=0;" parent="1" vertex="1">
          <mxGeometry x="695" y="100" width="30" height="60" as="geometry" />
        </mxCell>
        <mxCell id="duoS7hjMmrgmKoDXFe4e-23" style="edgeStyle=orthogonalEdgeStyle;rounded=0;orthogonalLoop=1;jettySize=auto;html=1;entryX=1;entryY=0.5;entryDx=0;entryDy=0;" parent="1" target="duoS7hjMmrgmKoDXFe4e-10" edge="1">
          <mxGeometry relative="1" as="geometry">
            <mxPoint x="330" y="830" as="sourcePoint" />
          </mxGeometry>
        </mxCell>
        <mxCell id="duoS7hjMmrgmKoDXFe4e-25" style="edgeStyle=orthogonalEdgeStyle;rounded=0;orthogonalLoop=1;jettySize=auto;html=1;entryX=0;entryY=0.5;entryDx=0;entryDy=0;" parent="1" target="duoS7hjMmrgmKoDXFe4e-11" edge="1">
          <mxGeometry relative="1" as="geometry">
            <mxPoint x="370" y="830" as="sourcePoint" />
          </mxGeometry>
        </mxCell>
        <mxCell id="duoS7hjMmrgmKoDXFe4e-5" value="Store Manager" style="shape=umlActor;verticalLabelPosition=bottom;verticalAlign=top;html=1;outlineConnect=0;" parent="1" vertex="1">
          <mxGeometry x="335" y="800" width="30" height="60" as="geometry" />
        </mxCell>
        <mxCell id="duoS7hjMmrgmKoDXFe4e-36" style="edgeStyle=orthogonalEdgeStyle;rounded=0;orthogonalLoop=1;jettySize=auto;html=1;" parent="1" source="duoS7hjMmrgmKoDXFe4e-6" target="duoS7hjMmrgmKoDXFe4e-8" edge="1">
          <mxGeometry relative="1" as="geometry" />
        </mxCell>
        <mxCell id="duoS7hjMmrgmKoDXFe4e-37" style="edgeStyle=orthogonalEdgeStyle;rounded=0;orthogonalLoop=1;jettySize=auto;html=1;entryX=0.5;entryY=0;entryDx=0;entryDy=0;" parent="1" source="duoS7hjMmrgmKoDXFe4e-6" target="duoS7hjMmrgmKoDXFe4e-7" edge="1">
          <mxGeometry relative="1" as="geometry" />
        </mxCell>
        <mxCell id="duoS7hjMmrgmKoDXFe4e-6" value="Customer accesses kiosk and enters in preferred checkout requirements" style="rounded=1;whiteSpace=wrap;html=1;arcSize=50;" parent="1" vertex="1">
          <mxGeometry x="110" y="370" width="140" height="80" as="geometry" />
        </mxCell>
        <mxCell id="duoS7hjMmrgmKoDXFe4e-39" style="edgeStyle=orthogonalEdgeStyle;rounded=0;orthogonalLoop=1;jettySize=auto;html=1;entryX=0;entryY=0.5;entryDx=0;entryDy=0;" parent="1" source="duoS7hjMmrgmKoDXFe4e-7" target="duoS7hjMmrgmKoDXFe4e-9" edge="1">
          <mxGeometry relative="1" as="geometry" />
        </mxCell>
        <mxCell id="duoS7hjMmrgmKoDXFe4e-41" style="edgeStyle=orthogonalEdgeStyle;rounded=0;orthogonalLoop=1;jettySize=auto;html=1;entryX=0.5;entryY=1;entryDx=0;entryDy=0;exitX=0.5;exitY=1;exitDx=0;exitDy=0;" parent="1" source="duoS7hjMmrgmKoDXFe4e-7" target="duoS7hjMmrgmKoDXFe4e-15" edge="1">
          <mxGeometry relative="1" as="geometry" />
        </mxCell>
        <mxCell id="duoS7hjMmrgmKoDXFe4e-7" value="Customer plans to pay with card and wants to go to self-checkout" style="rounded=1;whiteSpace=wrap;html=1;arcSize=50;" parent="1" vertex="1">
          <mxGeometry x="110" y="500" width="140" height="80" as="geometry" />
        </mxCell>
        <mxCell id="duoS7hjMmrgmKoDXFe4e-42" style="edgeStyle=orthogonalEdgeStyle;rounded=0;orthogonalLoop=1;jettySize=auto;html=1;entryX=0.5;entryY=1;entryDx=0;entryDy=0;" parent="1" source="duoS7hjMmrgmKoDXFe4e-8" target="duoS7hjMmrgmKoDXFe4e-13" edge="1">
          <mxGeometry relative="1" as="geometry" />
        </mxCell>
        <mxCell id="duoS7hjMmrgmKoDXFe4e-46" style="edgeStyle=orthogonalEdgeStyle;rounded=0;orthogonalLoop=1;jettySize=auto;html=1;" parent="1" source="duoS7hjMmrgmKoDXFe4e-8" target="duoS7hjMmrgmKoDXFe4e-15" edge="1">
          <mxGeometry relative="1" as="geometry" />
        </mxCell>
        <mxCell id="duoS7hjMmrgmKoDXFe4e-8" value="Customer can pay cash or card and wants to go to checkout express" style="whiteSpace=wrap;html=1;rounded=1;arcSize=50;" parent="1" vertex="1">
          <mxGeometry x="280" y="370" width="140" height="80" as="geometry" />
        </mxCell>
        <mxCell id="duoS7hjMmrgmKoDXFe4e-47" style="edgeStyle=orthogonalEdgeStyle;rounded=0;orthogonalLoop=1;jettySize=auto;html=1;entryX=0.5;entryY=1;entryDx=0;entryDy=0;" parent="1" source="duoS7hjMmrgmKoDXFe4e-9" target="duoS7hjMmrgmKoDXFe4e-15" edge="1">
          <mxGeometry relative="1" as="geometry" />
        </mxCell>
        <mxCell id="duoS7hjMmrgmKoDXFe4e-9" value="Customer is recommended a cashier POS because all SCOs occupied&amp;nbsp;" style="rounded=1;whiteSpace=wrap;html=1;arcSize=50;" parent="1" vertex="1">
          <mxGeometry x="280" y="500" width="140" height="80" as="geometry" />
        </mxCell>
        <mxCell id="duoS7hjMmrgmKoDXFe4e-10" value="Store manager configures cashier registers to the store" style="whiteSpace=wrap;html=1;rounded=1;arcSize=50;" parent="1" vertex="1">
          <mxGeometry x="110" y="640" width="140" height="80" as="geometry" />
        </mxCell>
        <mxCell id="duoS7hjMmrgmKoDXFe4e-11" value="Store manager configures SCO registers to the store" style="rounded=1;whiteSpace=wrap;html=1;arcSize=50;" parent="1" vertex="1">
          <mxGeometry x="450" y="640" width="140" height="80" as="geometry" />
        </mxCell>
        <mxCell id="duoS7hjMmrgmKoDXFe4e-12" value="Store staff are notified POSs are full and new ones may need to be opened" style="rounded=1;whiteSpace=wrap;html=1;arcSize=50;" parent="1" vertex="1">
          <mxGeometry x="280" y="90" width="140" height="80" as="geometry" />
        </mxCell>
        <mxCell id="duoS7hjMmrgmKoDXFe4e-43" style="edgeStyle=orthogonalEdgeStyle;rounded=0;orthogonalLoop=1;jettySize=auto;html=1;entryX=0.5;entryY=0;entryDx=0;entryDy=0;" parent="1" source="duoS7hjMmrgmKoDXFe4e-13" target="duoS7hjMmrgmKoDXFe4e-15" edge="1">
          <mxGeometry relative="1" as="geometry" />
        </mxCell>
        <mxCell id="duoS7hjMmrgmKoDXFe4e-44" style="edgeStyle=orthogonalEdgeStyle;rounded=0;orthogonalLoop=1;jettySize=auto;html=1;entryX=0.5;entryY=1;entryDx=0;entryDy=0;" parent="1" source="duoS7hjMmrgmKoDXFe4e-13" target="duoS7hjMmrgmKoDXFe4e-12" edge="1">
          <mxGeometry relative="1" as="geometry" />
        </mxCell>
        <mxCell id="duoS7hjMmrgmKoDXFe4e-13" value="Customer is notified of delay affecting their preferred checkout" style="whiteSpace=wrap;html=1;rounded=1;arcSize=50;glass=0;shadow=0;textShadow=0;" parent="1" vertex="1">
          <mxGeometry x="280" y="260" width="140" height="80" as="geometry" />
        </mxCell>
        <mxCell id="duoS7hjMmrgmKoDXFe4e-14" value="Store staff collect checkout data" style="rounded=1;whiteSpace=wrap;html=1;arcSize=50;" parent="1" vertex="1">
          <mxGeometry x="640" y="300" width="140" height="80" as="geometry" />
        </mxCell>
        <mxCell id="duoS7hjMmrgmKoDXFe4e-45" style="edgeStyle=orthogonalEdgeStyle;rounded=0;orthogonalLoop=1;jettySize=auto;html=1;entryX=0.5;entryY=1;entryDx=0;entryDy=0;" parent="1" source="duoS7hjMmrgmKoDXFe4e-15" target="duoS7hjMmrgmKoDXFe4e-14" edge="1">
          <mxGeometry relative="1" as="geometry" />
        </mxCell>
        <mxCell id="duoS7hjMmrgmKoDXFe4e-15" value="Customer removed from queue after checkout complete" style="rounded=1;whiteSpace=wrap;html=1;arcSize=50;" parent="1" vertex="1">
          <mxGeometry x="450" y="370" width="140" height="80" as="geometry" />
        </mxCell>
        <mxCell id="duoS7hjMmrgmKoDXFe4e-24" style="edgeStyle=orthogonalEdgeStyle;rounded=0;orthogonalLoop=1;jettySize=auto;html=1;entryX=1;entryY=0.5;entryDx=0;entryDy=0;" parent="1" target="duoS7hjMmrgmKoDXFe4e-12" edge="1">
          <mxGeometry relative="1" as="geometry">
            <mxPoint x="680" y="130" as="sourcePoint" />
            <mxPoint x="535" y="180" as="targetPoint" />
          </mxGeometry>
        </mxCell>
        <mxCell id="7vDaHP32KOjnt5uhq_bI-5" value="&lt;font style=&quot;font-size: 24px;&quot;&gt;&lt;b&gt;Kiosk&lt;/b&gt;&lt;/font&gt;" style="rounded=0;whiteSpace=wrap;html=1;fillColor=none;strokeWidth=3;labelPosition=center;verticalLabelPosition=bottom;align=center;verticalAlign=top;" vertex="1" parent="1">
          <mxGeometry x="90" y="230" width="520" height="530" as="geometry" />
        </mxCell>
      </root>
    </mxGraphModel>
  </diagram>
</mxfile>
